# xmcd
#
# Track frame offsets:
#	150
#	10025
#	22637
#	32882
#	58380
#	73900
#	89267
#	102654
#	114847
#	134675
#
# Disc length: 1988 seconds
# Revision: 0
# Processed by: cddbd v1.5.2PL0 Copyright (c) Steve Scherf et al.
# Submitted via: dBpowerAMP V12.0
#
DISCID=8507c20a
DTITLE=Steve Wariner - Christmas Memories
DYEAR=1998
DGENRE=Country
TTITLE0=Christmas Memories
TTITLE1=Let It Snow! Let It Snow! Let It Snow!
TTITLE2=I Saw Three Ships
TTITLE3=Medley: Hark, The Herald Angels Sing/The First Noel/Oh Come All Ye Fai
TTITLE4=Our Savior Is Born
TTITLE5=On Christmas Morning
TTITLE6=The Most Wonderful Time Of The Year
TTITLE7=Past Three O'Clock
TTITLE8=Do You Hear What I Hear?
TTITLE9=God Rest Ye Merry Gentlemen
EXTD=
EXTT0=
EXTT1=
EXTT2=
EXTT3=
EXTT4=
EXTT5=
EXTT6=
EXTT7=
EXTT8=
EXTT9=
PLAYORDER=
